<svg width="36" height="36" viewBox="0 0 36 36" fill="none" xmlns="http://www.w3.org/2000/svg">
<g filter="url(#filter0_d_1_12152)">
<path d="M2 7C2 3.68629 4.68629 1 8 1H28C31.3137 1 34 3.68629 34 7V27C34 30.3137 31.3137 33 28 33H8C4.68629 33 2 30.3137 2 27V7Z" fill="white" shape-rendering="crispEdges"/>
<g clip-path="url(#clip0_1_12152)">
<path d="M17.5169 12.8044C15.3506 12.8044 13.5881 14.5669 13.5881 16.7331C13.5881 18.8994 15.3506 20.6619 17.5169 20.6619C19.6825 20.6619 21.4456 18.8994 21.4456 16.7331C21.4456 14.5669 19.6825 12.8044 17.5169 12.8044ZM17.5169 19.5369C15.9706 19.5369 14.7131 18.2794 14.7131 16.7338C14.7131 15.1881 15.9706 13.9306 17.5169 13.9306C19.0625 13.9306 20.32 15.1881 20.32 16.7338C20.32 18.2794 19.0625 19.5369 17.5169 19.5369Z" fill="black"/>
<path d="M25.5412 15.4656C25.2356 15.5212 25.0331 15.815 25.0894 16.12C25.17 16.5612 25.2106 17.0231 25.2106 17.4937C25.2106 19.7581 24.2212 21.7906 22.6594 23.2L22.5637 23.0356C22.0437 22.1369 21.075 21.5787 20.0369 21.5787H14.995C13.9569 21.5787 12.9887 22.1375 12.4675 23.0356L12.3731 23.1987C10.8119 21.79 9.82312 19.7581 9.82312 17.4944C9.82312 13.2519 13.2744 9.80061 17.5169 9.80061C17.965 9.80061 18.4162 9.83999 18.8575 9.91749C19.1612 9.96624 19.4544 9.76686 19.5087 9.46061C19.5625 9.15499 19.3581 8.86311 19.0519 8.80936C18.5475 8.71999 18.0312 8.67499 17.5181 8.67499C12.6556 8.67499 8.69937 12.6312 8.69937 17.4937C8.69937 22.3562 12.6556 26.3125 17.5181 26.3125C22.3806 26.3125 26.3369 22.3562 26.3369 17.4937C26.3369 16.9556 26.2894 16.425 26.1956 15.9175C26.14 15.6112 25.8487 15.4075 25.5412 15.4656ZM13.2669 23.9006L13.4419 23.5987C13.7619 23.0462 14.3575 22.7031 14.9956 22.7031H20.0375C20.6756 22.7031 21.2712 23.0462 21.5912 23.5987L21.7669 23.9012C20.5481 24.7119 19.0881 25.1869 17.5175 25.1869C15.9469 25.1875 14.4862 24.7119 13.2669 23.9006Z" fill="black"/>
<path d="M23.7694 14.75C25.7163 14.75 27.3006 13.1656 27.3006 11.2188C27.3006 9.27188 25.7163 7.6875 23.7694 7.6875C21.8225 7.6875 20.2381 9.27188 20.2381 11.2188C20.2381 13.1656 21.8225 14.75 23.7694 14.75ZM23.7694 8.8125C25.0963 8.8125 26.1756 9.89188 26.1756 11.2188C26.1756 12.5456 25.0963 13.625 23.7694 13.625C22.4425 13.625 21.3631 12.5456 21.3631 11.2188C21.3631 9.89188 22.4425 8.8125 23.7694 8.8125Z" fill="black"/>
<path d="M22.8869 12.1494C22.9794 12.2675 23.1156 12.345 23.265 12.3619C23.2862 12.3644 23.3075 12.3656 23.3294 12.3656C23.4569 12.3656 23.5819 12.3219 23.6819 12.2413L25.1312 11.0731C25.3737 10.8775 25.4112 10.5238 25.2169 10.2819C25.0212 10.0406 24.6681 10.0019 24.4256 10.1963L23.42 11.0069L23.2019 10.7294C23.0119 10.485 22.6575 10.44 22.4125 10.6338C22.1675 10.825 22.125 11.1788 22.3169 11.4231L22.8869 12.1494Z" fill="black"/>
</g>
</g>
<defs>
<filter id="filter0_d_1_12152" x="0" y="0" width="36" height="36" filterUnits="userSpaceOnUse" color-interpolation-filters="sRGB">
<feFlood flood-opacity="0" result="BackgroundImageFix"/>
<feColorMatrix in="SourceAlpha" type="matrix" values="0 0 0 0 0 0 0 0 0 0 0 0 0 0 0 0 0 0 127 0" result="hardAlpha"/>
<feOffset dy="1"/>
<feGaussianBlur stdDeviation="1"/>
<feComposite in2="hardAlpha" operator="out"/>
<feColorMatrix type="matrix" values="0 0 0 0 0.0627451 0 0 0 0 0.0941176 0 0 0 0 0.156863 0 0 0 0.05 0"/>
<feBlend mode="normal" in2="BackgroundImageFix" result="effect1_dropShadow_1_12152"/>
<feBlend mode="normal" in="SourceGraphic" in2="effect1_dropShadow_1_12152" result="shape"/>
</filter>
<clipPath id="clip0_1_12152">
<rect width="20" height="20" fill="white" transform="translate(8 7)"/>
</clipPath>
</defs>
</svg>
