<svg width="36" height="36" viewBox="0 0 36 36" fill="none" xmlns="http://www.w3.org/2000/svg">
<g filter="url(#filter0_d_1_12108)">
<path d="M2 7C2 3.68629 4.68629 1 8 1H28C31.3137 1 34 3.68629 34 7V27C34 30.3137 31.3137 33 28 33H8C4.68629 33 2 30.3137 2 27V7Z" fill="white" shape-rendering="crispEdges"/>
<g clip-path="url(#clip0_1_12108)">
<path d="M15 16C13.1393 16 11.625 14.4858 11.625 12.625C11.625 10.7643 13.1393 9.25 15 9.25C16.8608 9.25 18.375 10.7643 18.375 12.625C18.375 14.4858 16.8608 16 15 16ZM15 10C13.5525 10 12.375 11.1775 12.375 12.625C12.375 14.0725 13.5525 15.25 15 15.25C16.4475 15.25 17.625 14.0725 17.625 12.625C17.625 11.1775 16.4475 10 15 10Z" fill="black"/>
<path d="M15.375 23.5H9.375C9.168 23.5 9 23.332 9 23.125V20.125C9 18.6775 10.1775 17.5 11.625 17.5H18.375C18.582 17.5 18.75 17.668 18.75 17.875C18.75 18.082 18.582 18.25 18.375 18.25H11.625C10.5915 18.25 9.75 19.0908 9.75 20.125V22.75H15.375C15.582 22.75 15.75 22.918 15.75 23.125C15.75 23.332 15.582 23.5 15.375 23.5Z" fill="black"/>
<path d="M17.5477 12.6872C16.6567 12.6872 16.014 12.082 15.681 11.674C14.0055 12.9647 12.024 12.6347 11.9347 12.619C11.7315 12.583 11.5957 12.3902 11.631 12.1862C11.6662 11.9822 11.859 11.8465 12.0645 11.881C12.0832 11.8825 14.0415 12.199 15.495 10.8505C15.5782 10.7725 15.6937 10.7365 15.8055 10.7545C15.918 10.771 16.017 10.8385 16.0747 10.9367C16.1047 10.987 16.818 12.1817 17.9025 11.8885C18.1035 11.836 18.309 11.9522 18.3622 12.1525C18.4162 12.3527 18.2985 12.5582 18.0982 12.6122C17.9055 12.664 17.7217 12.6872 17.5477 12.6872Z" fill="black"/>
<path d="M22.125 26.5C19.3913 26.5 17.25 25.3472 17.25 23.875V21.625C17.25 21.418 17.418 21.25 17.625 21.25C17.832 21.25 18 21.418 18 21.625V23.875C18 24.7622 19.6943 25.75 22.125 25.75C24.5558 25.75 26.25 24.7622 26.25 23.875V21.625C26.25 21.418 26.418 21.25 26.625 21.25C26.832 21.25 27 21.418 27 21.625V23.875C27 25.3472 24.8588 26.5 22.125 26.5Z" fill="black"/>
<path d="M22.125 24.25C19.3913 24.25 17.25 23.0972 17.25 21.625C17.25 20.1528 19.3913 19 22.125 19C24.8588 19 27 20.1528 27 21.625C27 23.0972 24.8588 24.25 22.125 24.25ZM22.125 19.75C19.6943 19.75 18 20.7378 18 21.625C18 22.5122 19.6943 23.5 22.125 23.5C24.5558 23.5 26.25 22.5122 26.25 21.625C26.25 20.7378 24.5558 19.75 22.125 19.75Z" fill="black"/>
</g>
</g>
<defs>
<filter id="filter0_d_1_12108" x="0" y="0" width="36" height="36" filterUnits="userSpaceOnUse" color-interpolation-filters="sRGB">
<feFlood flood-opacity="0" result="BackgroundImageFix"/>
<feColorMatrix in="SourceAlpha" type="matrix" values="0 0 0 0 0 0 0 0 0 0 0 0 0 0 0 0 0 0 127 0" result="hardAlpha"/>
<feOffset dy="1"/>
<feGaussianBlur stdDeviation="1"/>
<feComposite in2="hardAlpha" operator="out"/>
<feColorMatrix type="matrix" values="0 0 0 0 0.0627451 0 0 0 0 0.0941176 0 0 0 0 0.156863 0 0 0 0.05 0"/>
<feBlend mode="normal" in2="BackgroundImageFix" result="effect1_dropShadow_1_12108"/>
<feBlend mode="normal" in="SourceGraphic" in2="effect1_dropShadow_1_12108" result="shape"/>
</filter>
<clipPath id="clip0_1_12108">
<rect width="18" height="18" fill="white" transform="translate(9 8.5)"/>
</clipPath>
</defs>
</svg>
