<svg width="36" height="36" viewBox="0 0 36 36" fill="none" xmlns="http://www.w3.org/2000/svg">
<g filter="url(#filter0_d_1_12246)">
<path d="M2 7C2 3.68629 4.68629 1 8 1H28C31.3137 1 34 3.68629 34 7V27C34 30.3137 31.3137 33 28 33H8C4.68629 33 2 30.3137 2 27V7Z" fill="white" shape-rendering="crispEdges"/>
<path d="M25.6017 16.9652V9.27569C25.6017 8.93425 25.3227 8.65635 24.979 8.65635H20.8083V7.27624C20.8083 7.12376 20.6845 7 20.532 7C20.3796 7 20.2558 7.12376 20.2558 7.27624V8.65635H13.3459V7.29558C13.3459 7.14309 13.2221 7.01934 13.0696 7.01934C12.9171 7.01934 12.7934 7.14309 12.7934 7.29558V8.65635H8.62265C8.27901 8.65635 8 8.93425 8 9.27569V25.4541C8 25.7956 8.27901 26.0735 8.62265 26.0735H19.3481C20.232 26.6586 21.2939 27 22.4343 27C25.5028 27 28 24.5293 28 21.4917C28 19.6182 27.0497 17.9602 25.6017 16.9652ZM8.55249 9.27569C8.55249 9.23867 8.58398 9.20884 8.62265 9.20884H12.7934V10.5039C12.7934 10.6564 12.9171 10.7801 13.0696 10.7801C13.2221 10.7801 13.3459 10.6564 13.3459 10.5039V9.20884H20.2558V10.4845C20.2558 10.6376 20.3796 10.7608 20.532 10.7608C20.6845 10.7608 20.8083 10.6376 20.8083 10.4845V9.20884H24.979C25.0177 9.20884 25.0492 9.23867 25.0492 9.27569V12.7751H8.55249V9.27569ZM8.62265 25.521C8.58398 25.521 8.55249 25.4912 8.55249 25.4541V13.3276H25.0492V16.6304C24.2691 16.2177 23.379 15.9834 22.4343 15.9834C19.3652 15.9834 16.8685 18.4547 16.8685 21.4917C16.8685 23.0812 17.5519 24.5149 18.6436 25.521H8.62265ZM22.4343 26.4475C19.6696 26.4475 17.421 24.2243 17.421 21.4917C17.421 18.7591 19.6696 16.5359 22.4343 16.5359C25.1983 16.5359 27.4475 18.7591 27.4475 21.4917C27.4475 24.2243 25.1983 26.4475 22.4343 26.4475Z" fill="black"/>
<path d="M25.7403 21.4917C25.7403 21.6442 25.6166 21.768 25.4641 21.768H22.4343C22.2818 21.768 22.158 21.6442 22.158 21.4917V17.9873C22.158 17.8348 22.2818 17.7111 22.4343 17.7111C22.5867 17.7111 22.7105 17.8348 22.7105 17.9873V21.2155H25.4641C25.6166 21.2155 25.7403 21.3392 25.7403 21.4917Z" fill="black"/>
</g>
<defs>
<filter id="filter0_d_1_12246" x="0" y="0" width="36" height="36" filterUnits="userSpaceOnUse" color-interpolation-filters="sRGB">
<feFlood flood-opacity="0" result="BackgroundImageFix"/>
<feColorMatrix in="SourceAlpha" type="matrix" values="0 0 0 0 0 0 0 0 0 0 0 0 0 0 0 0 0 0 127 0" result="hardAlpha"/>
<feOffset dy="1"/>
<feGaussianBlur stdDeviation="1"/>
<feComposite in2="hardAlpha" operator="out"/>
<feColorMatrix type="matrix" values="0 0 0 0 0.0627451 0 0 0 0 0.0941176 0 0 0 0 0.156863 0 0 0 0.05 0"/>
<feBlend mode="normal" in2="BackgroundImageFix" result="effect1_dropShadow_1_12246"/>
<feBlend mode="normal" in="SourceGraphic" in2="effect1_dropShadow_1_12246" result="shape"/>
</filter>
</defs>
</svg>
