<svg width="102" height="52" viewBox="0 0 102 52" fill="none" xmlns="http://www.w3.org/2000/svg">
<mask id="mask0_1_12215" style="mask-type:alpha" maskUnits="userSpaceOnUse" x="1" y="1" width="100" height="50">
<rect width="100" height="50" transform="translate(1 1)" fill="url(#paint0_linear_1_12215)"/>
</mask>
<g mask="url(#mask0_1_12215)">
<path opacity="0.2" d="M4.59849 44.9655L1 51H101V1L99.5796 9.62069H97.6856C97.1806 11.0575 96.1326 13.931 95.9811 13.931C95.8295 13.931 94.8447 15.6552 94.3712 16.5172L90.2992 19.1034L87.9318 22.5517L84.1439 19.1034L82.1553 16.5172L79.3144 22.5517H76.3788L73.9167 16.5172C72.9697 15.6552 71.0379 13.931 70.8864 13.931C70.7348 13.931 69.4975 12.2069 68.8977 11.3448H67.3826L63.7841 13.931L60.6591 16.5172L59.2386 22.5517L54.9773 25.1379L52.7992 27.7241L50.3371 32.0345L47.9697 37.6918H46.928L44.0871 38.2306L41.3409 32.0345L38.9735 27.7241H37.553L35.0909 25.1379L31.5871 27.7241H28.2727L24.9583 32.0345L21.6439 37.2069L19.1818 42.3793L16.5303 44.9655L12.9318 42.3793L10.0909 44.9655L7.25 47.5517L4.59849 44.9655Z" fill="#079455"/>
</g>
<path d="M1 51L4.59849 44.9655L7.25 47.5517L10.0909 44.9655L12.9318 42.3793L16.5303 44.9655L19.1818 42.3793L21.6439 37.2069L24.9583 32.0345L28.2727 27.7241H31.5871L35.0909 25.1379L37.553 27.7241H38.9735L41.3409 32.0345L44.0871 38.2306L46.928 37.6918H47.9697L50.3371 32.0345L52.7992 27.7241L54.9773 25.1379L59.2386 22.5517L60.6591 16.5172L63.7841 13.931L67.3826 11.3448H68.8977C69.4975 12.2069 70.7348 13.931 70.8864 13.931C71.0379 13.931 72.9697 15.6552 73.9167 16.5172L76.3788 22.5517H79.3144L82.1553 16.5172L84.1439 19.1034L87.9318 22.5517L90.2992 19.1034L94.3712 16.5172C94.8447 15.6552 95.8295 13.931 95.9811 13.931C96.1326 13.931 97.1806 11.0575 97.6856 9.62069H99.5795L101 1" stroke="#17B26A" stroke-width="1.5625" stroke-linecap="round" stroke-linejoin="round"/>
<g opacity="0.2">
<rect x="59.5938" y="4.125" width="15.625" height="15.625" rx="7.8125" stroke="#17B26A" stroke-width="1.5625"/>
</g>
<rect x="63.5" y="8.03125" width="7.8125" height="7.8125" rx="3.90625" fill="white"/>
<rect x="63.5" y="8.03125" width="7.8125" height="7.8125" rx="3.90625" stroke="#17B26A" stroke-width="1.5625"/>
<defs>
<linearGradient id="paint0_linear_1_12215" x1="50" y1="0" x2="50" y2="50" gradientUnits="userSpaceOnUse">
<stop/>
<stop offset="1" stop-opacity="0"/>
</linearGradient>
</defs>
</svg>
