<svg width="36" height="36" viewBox="0 0 36 36" fill="none" xmlns="http://www.w3.org/2000/svg">
<g filter="url(#filter0_d_1_12205)">
<path d="M2 7C2 3.68629 4.68629 1 8 1H28C31.3137 1 34 3.68629 34 7V27C34 30.3137 31.3137 33 28 33H8C4.68629 33 2 30.3137 2 27V7Z" fill="white" shape-rendering="crispEdges"/>
<path d="M23.1713 11.5597L18.9116 7.27362C18.8816 7.24346 18.8459 7.21953 18.8067 7.2032C18.7674 7.18687 18.7253 7.17846 18.6828 7.17847L9.35408 7.17847C9.00133 7.17887 8.66314 7.31918 8.41371 7.56861C8.16427 7.81805 8.02397 8.15623 8.02356 8.50899V26.4911C8.02397 26.8439 8.16427 27.1821 8.41371 27.4315C8.66314 27.681 9.00133 27.8213 9.35408 27.8217H21.9347C22.2874 27.8213 22.6256 27.681 22.8751 27.4315C23.1245 27.1821 23.2648 26.8439 23.2652 26.4911V20.1934L27.4699 15.9886C27.8244 15.6341 28.0236 15.1533 28.0236 14.652C28.0236 14.1507 27.8244 13.6699 27.4699 13.3154C27.1155 12.9609 26.6347 12.7618 26.1334 12.7618C25.6321 12.7618 25.1513 12.9609 24.7968 13.3154L23.2651 14.8471V11.7869C23.2651 11.7018 23.2313 11.6201 23.1713 11.5597ZM23.7656 15.259L25.5264 17.0197L19.3536 23.1925L17.5928 21.4318L23.7656 15.259ZM24.6552 14.3694L26.416 16.1301L25.9825 16.5636L24.2219 14.8027L24.6552 14.3694ZM17.3012 22.0521L18.7269 23.4778L16.9477 23.8095L17.3012 22.0521ZM19.1647 8.44347L21.983 11.279H19.1647V8.44347ZM22.6201 26.4911C22.6199 26.6729 22.5476 26.8471 22.4191 26.9756C22.2906 27.1041 22.1164 27.1764 21.9347 27.1766H9.35408C9.17236 27.1764 8.99813 27.1041 8.86964 26.9756C8.74114 26.8471 8.66886 26.6729 8.66866 26.4911V8.50899C8.66886 8.32726 8.74114 8.15304 8.86964 8.02455C8.99813 7.89605 9.17236 7.82377 9.35408 7.82357H18.5196V11.6014C18.5196 11.687 18.5536 11.769 18.6141 11.8295C18.6746 11.89 18.7566 11.924 18.8422 11.924H22.62V15.4922L16.8589 21.2535C16.814 21.2984 16.7833 21.3556 16.7708 21.4179L16.2211 24.1507C16.2107 24.2024 16.2131 24.2559 16.2282 24.3065C16.2433 24.3571 16.2706 24.4032 16.3076 24.4407C16.3447 24.4783 16.3904 24.5062 16.4407 24.522C16.4911 24.5378 16.5445 24.541 16.5964 24.5314L19.363 24.0156C19.4271 24.0037 19.486 23.9726 19.532 23.9266L22.6201 20.8385V26.4911ZM27.0137 13.7716C27.2461 14.0057 27.3765 14.3222 27.3765 14.652C27.3765 14.9818 27.2461 15.2983 27.0137 15.5324L26.8721 15.674L25.1114 13.9132L25.2529 13.7716C25.4866 13.5385 25.8032 13.4075 26.1333 13.4075C26.4634 13.4075 26.78 13.5385 27.0137 13.7716ZM15.847 22.2983C15.847 22.3838 15.813 22.4659 15.7525 22.5264C15.692 22.5868 15.61 22.6208 15.5245 22.6208H10.4885C10.403 22.6208 10.3209 22.5868 10.2604 22.5264C10.2 22.4659 10.166 22.3838 10.166 22.2983C10.166 22.2127 10.2 22.1307 10.2604 22.0702C10.3209 22.0097 10.403 21.9757 10.4885 21.9757H15.5243C15.5667 21.9757 15.6087 21.984 15.6478 22.0002C15.687 22.0164 15.7225 22.0402 15.7525 22.0702C15.7825 22.1001 15.8062 22.1357 15.8224 22.1748C15.8387 22.214 15.847 22.2559 15.847 22.2983ZM10.1661 19.4873C10.1661 19.4017 10.2001 19.3197 10.2606 19.2592C10.3211 19.1987 10.4031 19.1647 10.4886 19.1647H17.1427C17.2282 19.1647 17.3102 19.1987 17.3707 19.2592C17.4312 19.3197 17.4652 19.4017 17.4652 19.4873C17.4652 19.5728 17.4312 19.6548 17.3707 19.7153C17.3102 19.7758 17.2282 19.8098 17.1427 19.8098H10.4885C10.403 19.8098 10.3209 19.7758 10.2604 19.7153C10.2 19.6548 10.166 19.5728 10.166 19.4873H10.1661ZM10.1661 16.6762C10.1661 16.5907 10.2001 16.5086 10.2606 16.4482C10.3211 16.3877 10.4031 16.3537 10.4886 16.3537H20.8002C20.8858 16.3537 20.9678 16.3877 21.0283 16.4482C21.0888 16.5086 21.1228 16.5907 21.1228 16.6762C21.1228 16.7618 21.0888 16.8438 21.0283 16.9043C20.9678 16.9648 20.8858 16.9988 20.8002 16.9988H10.4885C10.403 16.9988 10.3209 16.9648 10.2604 16.9043C10.2 16.8438 10.166 16.7618 10.166 16.6762H10.1661ZM10.1661 13.8653C10.1661 13.7797 10.2001 13.6977 10.2606 13.6372C10.3211 13.5767 10.4031 13.5427 10.4886 13.5427H20.8002C20.8858 13.5427 20.9678 13.5767 21.0283 13.6372C21.0888 13.6977 21.1228 13.7797 21.1228 13.8653C21.1228 13.9508 21.0888 14.0328 21.0283 14.0933C20.9678 14.1538 20.8858 14.1878 20.8002 14.1878H10.4885C10.403 14.1878 10.3209 14.1538 10.2604 14.0933C10.2 14.0328 10.166 13.9508 10.166 13.8653H10.1661ZM10.1661 11.0542C10.1661 10.9687 10.2001 10.8866 10.2606 10.8261C10.3211 10.7657 10.4031 10.7317 10.4886 10.7317H17.3167C17.4023 10.7317 17.4843 10.7657 17.5448 10.8261C17.6053 10.8866 17.6393 10.9687 17.6393 11.0542C17.6393 11.1398 17.6053 11.2218 17.5448 11.2823C17.4843 11.3428 17.4023 11.3768 17.3167 11.3768H10.4885C10.403 11.3768 10.3209 11.3428 10.2604 11.2823C10.2 11.2218 10.166 11.1398 10.166 11.0542H10.1661Z" fill="black"/>
</g>
<defs>
<filter id="filter0_d_1_12205" x="0" y="0" width="36" height="36" filterUnits="userSpaceOnUse" color-interpolation-filters="sRGB">
<feFlood flood-opacity="0" result="BackgroundImageFix"/>
<feColorMatrix in="SourceAlpha" type="matrix" values="0 0 0 0 0 0 0 0 0 0 0 0 0 0 0 0 0 0 127 0" result="hardAlpha"/>
<feOffset dy="1"/>
<feGaussianBlur stdDeviation="1"/>
<feComposite in2="hardAlpha" operator="out"/>
<feColorMatrix type="matrix" values="0 0 0 0 0.0627451 0 0 0 0 0.0941176 0 0 0 0 0.156863 0 0 0 0.05 0"/>
<feBlend mode="normal" in2="BackgroundImageFix" result="effect1_dropShadow_1_12205"/>
<feBlend mode="normal" in="SourceGraphic" in2="effect1_dropShadow_1_12205" result="shape"/>
</filter>
</defs>
</svg>
