<svg width="36" height="36" viewBox="0 0 36 36" fill="none" xmlns="http://www.w3.org/2000/svg">
<g filter="url(#filter0_d_1_12226)">
<path d="M2 7C2 3.68629 4.68629 1 8 1H28C31.3137 1 34 3.68629 34 7V27C34 30.3137 31.3137 33 28 33H8C4.68629 33 2 30.3137 2 27V7Z" fill="white" shape-rendering="crispEdges"/>
<path d="M26.9463 14.1664C30.4661 28.2805 8.9985 31.6484 8.16194 16.9828C8.02692 10.3242 15.231 5.48419 21.3403 8.0701C21.4307 8.10481 21.531 8.10268 21.6198 8.06415C21.7086 8.02562 21.7787 7.95378 21.8151 7.86409C21.8515 7.77439 21.8512 7.67401 21.8143 7.58453C21.7774 7.49505 21.7068 7.42363 21.6178 7.38563C6.10183 2.29758 1.34337 26.1766 17.7638 27.3233C24.5956 27.4345 29.7422 20.432 27.6521 13.9491C27.6219 13.8572 27.5569 13.7808 27.4709 13.7364C27.385 13.6919 27.2851 13.6829 27.1926 13.7114C27.1001 13.7399 27.0225 13.8035 26.9765 13.8886C26.9304 13.9736 26.9196 14.0734 26.9463 14.1664Z" fill="black"/>
<path d="M21.0159 8.73599C11.7737 5.29818 4.55893 16.9198 11.8889 23.5846C15.0688 26.583 20.4785 26.6205 23.6223 23.5862C26.0736 21.3967 27.362 17.7402 26.249 14.4297C26.2189 14.3378 26.1539 14.2613 26.0681 14.2168C25.9822 14.1722 25.8823 14.1631 25.7898 14.1915C25.6973 14.2198 25.6196 14.2833 25.5735 14.3682C25.5273 14.4532 25.5162 14.5529 25.5428 14.646C25.9636 15.9904 26.018 17.4227 25.7004 18.7951C25.3828 20.1676 24.7047 21.4304 23.7361 22.4533C21.9325 16.7346 13.5968 16.7619 11.7877 22.4725C6.07741 16.3289 12.6748 6.26571 20.7456 9.42326C20.8363 9.45706 20.9367 9.4539 21.0251 9.41446C21.1135 9.37502 21.1828 9.30244 21.2183 9.21236C21.2537 9.12227 21.2523 9.02188 21.2145 8.93279C21.1766 8.8437 21.1053 8.77303 21.0159 8.73599ZM23.1318 23.0399C20.297 25.512 15.8306 26.069 12.3912 23.0612C13.7719 17.5505 21.7475 17.5129 23.1318 23.0399Z" fill="black"/>
<path d="M14.0707 14.0634C14.0707 15.0429 14.4598 15.9822 15.1524 16.6748C15.845 17.3674 16.7843 17.7565 17.7638 17.7565C18.7432 17.7565 19.6826 17.3674 20.3752 16.6748C21.0677 15.9822 21.4568 15.0429 21.4568 14.0634C21.2548 9.16544 14.2735 9.16402 14.0707 14.0634ZM14.8093 14.0634C14.958 10.149 20.5704 10.1507 20.7182 14.0634C20.5703 17.9764 14.9579 17.9775 14.8093 14.0634Z" fill="black"/>
<path d="M25.1762 13.4874C26.0574 13.4864 26.9023 13.1359 27.5254 12.5128C28.1485 11.8897 28.499 11.0449 28.5 10.1637C28.3261 5.75871 22.027 5.75749 21.8525 10.1637C21.8535 11.0449 22.204 11.8897 22.8271 12.5128C23.4502 13.1359 24.295 13.4864 25.1762 13.4874ZM25.1762 7.57853C25.8616 7.5793 26.5187 7.8519 27.0033 8.33653C27.488 8.82117 27.7606 9.47825 27.7614 10.1636C27.6405 13.5843 22.7124 13.5852 22.5911 10.1637C22.5919 9.47829 22.8645 8.82119 23.3491 8.33655C23.8338 7.85191 24.4908 7.5793 25.1762 7.57853Z" fill="black"/>
<path d="M26.4425 10.533C26.5392 10.5312 26.6313 10.4914 26.6991 10.4224C26.7668 10.3533 26.8048 10.2604 26.8048 10.1637C26.8048 10.067 26.7668 9.97408 26.6991 9.90502C26.6313 9.83597 26.5392 9.79624 26.4425 9.79439H25.5455V8.89748C25.5436 8.80085 25.5038 8.70886 25.4347 8.64123C25.3657 8.57359 25.2729 8.53571 25.1763 8.53571C25.0796 8.5357 24.9868 8.57357 24.9178 8.64119C24.8487 8.70882 24.8089 8.80081 24.8069 8.89743C24.8263 10.8094 24.5279 10.5144 26.4425 10.533Z" fill="black"/>
</g>
<defs>
<filter id="filter0_d_1_12226" x="0" y="0" width="36" height="36" filterUnits="userSpaceOnUse" color-interpolation-filters="sRGB">
<feFlood flood-opacity="0" result="BackgroundImageFix"/>
<feColorMatrix in="SourceAlpha" type="matrix" values="0 0 0 0 0 0 0 0 0 0 0 0 0 0 0 0 0 0 127 0" result="hardAlpha"/>
<feOffset dy="1"/>
<feGaussianBlur stdDeviation="1"/>
<feComposite in2="hardAlpha" operator="out"/>
<feColorMatrix type="matrix" values="0 0 0 0 0.0627451 0 0 0 0 0.0941176 0 0 0 0 0.156863 0 0 0 0.05 0"/>
<feBlend mode="normal" in2="BackgroundImageFix" result="effect1_dropShadow_1_12226"/>
<feBlend mode="normal" in="SourceGraphic" in2="effect1_dropShadow_1_12226" result="shape"/>
</filter>
</defs>
</svg>
