<svg width="102" height="52" viewBox="0 0 102 52" fill="none" xmlns="http://www.w3.org/2000/svg">
<mask id="mask0_1_12241" style="mask-type:alpha" maskUnits="userSpaceOnUse" x="1" y="1" width="100" height="50">
<rect width="100" height="50" transform="translate(1 1)" fill="url(#paint0_linear_1_12241)"/>
</mask>
<g mask="url(#mask0_1_12241)">
<path opacity="0.2" d="M98.1279 48.3158L101 51H1V1C1.46417 2.49124 2.42734 9.84175 2.56659 9.84175C2.70584 9.84175 3.61098 3.98719 4.04614 4.88193L7.78852 7.56617L9.96432 18.7892L13.4456 9.75018L15.2733 7.06595L17.8842 18.7892H20.5822L22.8451 12.526C23.7154 11.6312 25.4909 9.84175 25.6301 9.84175C25.7694 9.84175 26.9066 8.05226 27.4578 7.15752H28.8503L32.1575 13.1178L35.0296 12.526L36.3351 18.7892L40.2515 21.4734L42.2533 24.1577L44.5161 28.6314L46.6919 24.0802H47.6493L50.2602 30.132L52.7842 28.6314L54.96 24.1577H56.2654L58.5283 30.2095L61.7485 24.1577L64.7946 19.7896L67.8407 28.6314L70.8869 44.9199L73.1497 39.3683L75.5866 42.0526L78.8938 39.3683L84.1158 44.7368L86.5527 42.0526L89.8599 48.3158L92.6449 44.7368L95.4299 48.3158H98.1279Z" fill="#D92D20"/>
</g>
<path d="M101 51L98.1279 48.3158H95.4299L92.6449 44.7368L89.8599 48.3158L86.5527 42.0526L84.1158 44.7368L78.8938 39.3683L75.5866 42.0526L73.1497 39.3683L70.8869 44.9199L67.8407 28.6314L64.7946 19.7896L61.7485 24.1577L58.5283 30.2095L56.2655 24.1577H54.96L52.7842 28.6314L50.2602 30.132L47.6493 24.0802H46.6919L44.5161 28.6314L42.2533 24.1577L40.2515 21.4734L36.3351 18.7892L35.0296 12.526L32.1575 13.1178L28.8503 7.15752H27.4578C26.9066 8.05226 25.7694 9.84175 25.6301 9.84175C25.4909 9.84175 23.7154 11.6312 22.8451 12.526L20.5822 18.7892H17.8842L15.2733 7.06595L13.4456 9.75018L9.96432 18.7892L7.78852 7.56617L4.04614 4.88193C3.61098 3.98719 2.70584 9.84175 2.56659 9.84175C2.42734 9.84175 1.46417 2.49124 1 1" stroke="#F04438" stroke-width="1.5625" stroke-linecap="round" stroke-linejoin="round"/>
<g opacity="0.2">
<rect x="56.4688" y="14.2812" width="15.625" height="15.625" rx="7.8125" stroke="#F04438" stroke-width="1.5625"/>
</g>
<rect x="60.375" y="18.1875" width="7.8125" height="7.8125" rx="3.90625" fill="white"/>
<rect x="60.375" y="18.1875" width="7.8125" height="7.8125" rx="3.90625" stroke="#F04438" stroke-width="1.5625"/>
<defs>
<linearGradient id="paint0_linear_1_12241" x1="50" y1="0" x2="50" y2="50" gradientUnits="userSpaceOnUse">
<stop/>
<stop offset="1" stop-opacity="0"/>
</linearGradient>
</defs>
</svg>
