<svg width="36" height="36" viewBox="0 0 36 36" fill="none" xmlns="http://www.w3.org/2000/svg">
<g filter="url(#filter0_d_1_12285)">
<path d="M2 7C2 3.68629 4.68629 1 8 1H28C31.3137 1 34 3.68629 34 7V27C34 30.3137 31.3137 33 28 33H8C4.68629 33 2 30.3137 2 27V7Z" fill="white" shape-rendering="crispEdges"/>
<g clip-path="url(#clip0_1_12285)">
<path d="M19.1633 15.65H17.61C17.2742 15.6504 16.9522 15.784 16.7148 16.0214C16.4773 16.2589 16.3437 16.5808 16.3433 16.9167V18.47C16.3433 18.6364 16.376 18.8011 16.4396 18.9548C16.5032 19.1085 16.5965 19.2482 16.7142 19.3658C16.8318 19.4835 16.9715 19.5768 17.1252 19.6404C17.2789 19.704 17.4436 19.7367 17.61 19.7367H19.1633C19.4991 19.7362 19.8211 19.6027 20.0585 19.3652C20.296 19.1277 20.4296 18.8058 20.43 18.47V16.9167C20.429 16.581 20.2953 16.2594 20.0579 16.0221C19.8206 15.7847 19.499 15.651 19.1633 15.65ZM19.7633 18.47C19.7629 18.629 19.6995 18.7813 19.5871 18.8937C19.4747 19.0062 19.3223 19.0695 19.1633 19.07H17.61C17.5312 19.07 17.4531 19.0546 17.3803 19.0244C17.3075 18.9943 17.2413 18.9501 17.1856 18.8944C17.1299 18.8386 17.0857 18.7725 17.0556 18.6997C17.0254 18.6268 17.0099 18.5488 17.01 18.47V16.9167C17.0099 16.8378 17.0254 16.7598 17.0556 16.687C17.0857 16.6142 17.1299 16.548 17.1856 16.4923C17.2413 16.4366 17.3075 16.3924 17.3803 16.3622C17.4531 16.3321 17.5312 16.3166 17.61 16.3167H19.1633C19.3223 16.3171 19.4747 16.3805 19.5871 16.4929C19.6995 16.6053 19.7629 16.7577 19.7633 16.9167V18.47ZM25.0667 15.65H23.5133C23.1775 15.6504 22.8556 15.784 22.6181 16.0214C22.3807 16.2589 22.2471 16.5808 22.2467 16.9167V18.47C22.2466 18.6363 22.2793 18.8011 22.3429 18.9548C22.4066 19.1085 22.4999 19.2482 22.6175 19.3658C22.7351 19.4835 22.8748 19.5768 23.0285 19.6404C23.1822 19.704 23.347 19.7367 23.5133 19.7367H25.0667C25.4025 19.7362 25.7244 19.6027 25.9619 19.3652C26.1993 19.1277 26.3329 18.8058 26.3333 18.47V16.9167C26.3324 16.581 26.1986 16.2594 25.9613 16.0221C25.7239 15.7847 25.4023 15.651 25.0667 15.65ZM25.6667 18.47C25.6662 18.629 25.6028 18.7813 25.4904 18.8937C25.378 19.0062 25.2257 19.0695 25.0667 19.07H23.5133C23.3543 19.0695 23.202 19.0062 23.0896 18.8937C22.9772 18.7813 22.9138 18.629 22.9133 18.47V16.9167C22.9138 16.7577 22.9772 16.6053 23.0896 16.4929C23.202 16.3805 23.3543 16.3171 23.5133 16.3167H25.0667C25.2257 16.3171 25.378 16.3805 25.4904 16.4929C25.6028 16.6053 25.6662 16.7577 25.6667 16.9167V18.47ZM19.1633 21.1867H17.61C17.2742 21.1871 16.9522 21.3206 16.7148 21.5581C16.4773 21.7956 16.3437 22.1175 16.3433 22.4533V24.0067C16.3433 24.173 16.376 24.3378 16.4396 24.4915C16.5032 24.6452 16.5965 24.7849 16.7142 24.9025C16.8318 25.0201 16.9715 25.1134 17.1252 25.1771C17.2789 25.2407 17.4436 25.2734 17.61 25.2733H19.1633C19.4991 25.2729 19.8211 25.1393 20.0585 24.9019C20.296 24.6644 20.4296 24.3425 20.43 24.0067V22.4533C20.429 22.1177 20.2953 21.7961 20.0579 21.5587C19.8206 21.3214 19.499 21.1876 19.1633 21.1867ZM19.7633 24.0067C19.7629 24.1656 19.6995 24.318 19.5871 24.4304C19.4747 24.5428 19.3223 24.6062 19.1633 24.6067H17.61C17.5312 24.6067 17.4531 24.5912 17.3803 24.5611C17.3075 24.5309 17.2414 24.4868 17.1856 24.431C17.1299 24.3753 17.0857 24.3091 17.0556 24.2363C17.0254 24.1635 17.01 24.0855 17.01 24.0067V22.4533C17.0099 22.3745 17.0254 22.2965 17.0556 22.2237C17.0857 22.1508 17.1299 22.0847 17.1856 22.0289C17.2413 21.9732 17.3075 21.929 17.3803 21.8989C17.4531 21.8688 17.5312 21.8533 17.61 21.8533H19.1633C19.3223 21.8538 19.4747 21.9171 19.5871 22.0296C19.6995 22.142 19.7629 22.2943 19.7633 22.4533V24.0067ZM25.0667 21.1867H23.5133C23.1775 21.1871 22.8556 21.3207 22.6181 21.5581C22.3807 21.7956 22.2471 22.1175 22.2467 22.4533V24.0067C22.2466 24.173 22.2793 24.3378 22.3429 24.4915C22.4066 24.6452 22.4999 24.7848 22.6175 24.9025C22.7351 25.0201 22.8748 25.1134 23.0285 25.177C23.1822 25.2407 23.347 25.2734 23.5133 25.2733H25.0667C25.4025 25.2729 25.7244 25.1393 25.9619 24.9019C26.1993 24.6644 26.3329 24.3425 26.3333 24.0067V22.4533C26.3324 22.1177 26.1986 21.7961 25.9613 21.5587C25.7239 21.3214 25.4023 21.1876 25.0667 21.1867ZM25.6667 24.0067C25.6662 24.1656 25.6028 24.318 25.4904 24.4304C25.378 24.5428 25.2257 24.6062 25.0667 24.6067H23.5133C23.3543 24.6062 23.202 24.5428 23.0896 24.4304C22.9772 24.318 22.9138 24.1656 22.9133 24.0067V22.4533C22.9138 22.2943 22.9772 22.142 23.0896 22.0296C23.202 21.9171 23.3543 21.8538 23.5133 21.8533H25.0667C25.2257 21.8538 25.378 21.9171 25.4904 22.0296C25.6028 22.142 25.6662 22.2943 25.6667 22.4533V24.0067ZM8.66667 20.5067V21.1733C8.66667 21.2617 8.63155 21.3465 8.56904 21.409C8.50652 21.4715 8.42174 21.5067 8.33333 21.5067C8.24493 21.5067 8.16014 21.4715 8.09763 21.409C8.03512 21.3465 8 21.2617 8 21.1733V20.5067C8 20.4182 8.03512 20.3335 8.09763 20.271C8.16014 20.2084 8.24493 20.1733 8.33333 20.1733C8.42174 20.1733 8.50652 20.2084 8.56904 20.271C8.63155 20.3335 8.66667 20.4182 8.66667 20.5067ZM26.6233 9.16332H24.0633V8.41999C24.0628 8.15051 23.9556 7.89221 23.765 7.70165C23.5744 7.5111 23.3161 7.40383 23.0467 7.40332H22.29C22.0205 7.40383 21.7622 7.5111 21.5717 7.70165C21.3811 7.89221 21.2738 8.15051 21.2733 8.41999V9.16332H14.71V8.41999C14.71 8.28647 14.6838 8.15425 14.6327 8.03089C14.5816 7.90753 14.5067 7.79544 14.4123 7.70103C14.3179 7.60662 14.2058 7.53173 14.0824 7.48065C13.9591 7.42957 13.8269 7.40329 13.6933 7.40332H12.9367C12.6672 7.40383 12.4089 7.5111 12.2183 7.70165C12.0278 7.89221 11.9205 8.15051 11.92 8.41999V9.16332H9.37667C9.0121 9.16324 8.6624 9.30779 8.4043 9.56527C8.1462 9.82274 8.0008 10.1721 8 10.5367V18.84C8 18.9284 8.03512 19.0132 8.09763 19.0757C8.16014 19.1382 8.24493 19.1733 8.33333 19.1733C8.42174 19.1733 8.50652 19.1382 8.56904 19.0757C8.63155 19.0132 8.66667 18.9284 8.66667 18.84V14.44H27.3333V25.22C27.3326 25.4081 27.2576 25.5882 27.1246 25.7212C26.9916 25.8542 26.8114 25.9293 26.6233 25.93H9.37667C9.18859 25.9293 9.00841 25.8542 8.87542 25.7212C8.74242 25.5882 8.66739 25.4081 8.66667 25.22V23.1567H14.15L12.6767 24.6333C12.6458 24.6642 12.6212 24.7008 12.6045 24.7411C12.5878 24.7814 12.5792 24.8247 12.5792 24.8683C12.5792 24.912 12.5878 24.9552 12.6045 24.9955C12.6212 25.0359 12.6458 25.0725 12.6767 25.1033C12.7071 25.1349 12.7436 25.1601 12.784 25.1773C12.8243 25.1945 12.8678 25.2033 12.9117 25.2033C12.9556 25.2033 12.999 25.1945 13.0394 25.1773C13.0797 25.1601 13.1162 25.1349 13.1467 25.1033L15.1933 23.06C15.2547 22.9964 15.2894 22.9117 15.29 22.8233C15.2893 22.7359 15.2546 22.6523 15.1933 22.59L13.1467 20.5433C13.1158 20.5124 13.0792 20.4879 13.0389 20.4712C12.9986 20.4544 12.9553 20.4458 12.9117 20.4458C12.868 20.4458 12.8248 20.4544 12.7845 20.4712C12.7441 20.4879 12.7075 20.5124 12.6767 20.5433C12.6142 20.6063 12.5792 20.6913 12.5792 20.78C12.5792 20.8687 12.6142 20.9537 12.6767 21.0167L14.15 22.49H8.33667C8.25735 22.4934 8.18154 22.5236 8.12161 22.5757C8.06168 22.6278 8.02116 22.6986 8.00667 22.7767C8.0028 22.7976 8.00057 22.8187 8 22.84V25.22C8.0001 25.5851 8.14518 25.9352 8.40333 26.1933C8.66148 26.4515 9.01158 26.5965 9.37667 26.5967H26.6233C26.9884 26.5965 27.3385 26.4515 27.5967 26.1933C27.8548 25.9352 27.9999 25.5851 28 25.22V10.5367C27.9992 10.1721 27.8538 9.82274 27.5957 9.56527C27.3376 9.30779 26.9879 9.16324 26.6233 9.16332ZM21.94 8.41999C21.94 8.37402 21.949 8.32851 21.9666 8.28604C21.9842 8.24358 22.01 8.20499 22.0425 8.17249C22.075 8.13999 22.1136 8.11421 22.1561 8.09662C22.1985 8.07903 22.244 8.06998 22.29 8.06999H23.0467C23.0926 8.06998 23.1381 8.07903 23.1806 8.09662C23.2231 8.11421 23.2617 8.13999 23.2942 8.17249C23.3267 8.20499 23.3524 8.24358 23.37 8.28604C23.3876 8.32851 23.3967 8.37402 23.3967 8.41999V10.57C23.3967 10.616 23.3876 10.6615 23.37 10.7039C23.3524 10.7464 23.3267 10.785 23.2942 10.8175C23.2617 10.85 23.2231 10.8758 23.1806 10.8934C23.1381 10.9109 23.0926 10.92 23.0467 10.92H22.29C22.244 10.92 22.1985 10.9109 22.1561 10.8934C22.1136 10.8758 22.075 10.85 22.0425 10.8175C22.01 10.785 21.9842 10.7464 21.9666 10.7039C21.949 10.6615 21.94 10.616 21.94 10.57V8.41999ZM12.5867 8.41999C12.5867 8.37402 12.5957 8.32851 12.6133 8.28604C12.6309 8.24358 12.6567 8.20499 12.6892 8.17249C12.7217 8.13999 12.7603 8.11421 12.8027 8.09662C12.8452 8.07903 12.8907 8.06998 12.9367 8.06999H13.6933C13.7393 8.06998 13.7848 8.07903 13.8273 8.09662C13.8697 8.11421 13.9083 8.13999 13.9408 8.17249C13.9733 8.20499 13.9991 8.24358 14.0167 8.28604C14.0343 8.32851 14.0433 8.37402 14.0433 8.41999V10.57C14.0433 10.616 14.0343 10.6615 14.0167 10.7039C13.9991 10.7464 13.9733 10.785 13.9408 10.8175C13.9083 10.85 13.8697 10.8758 13.8273 10.8934C13.7848 10.9109 13.7393 10.92 13.6933 10.92H12.9367C12.8907 10.92 12.8452 10.9109 12.8027 10.8934C12.7603 10.8758 12.7217 10.85 12.6892 10.8175C12.6567 10.785 12.6309 10.7464 12.6133 10.7039C12.5957 10.6615 12.5867 10.616 12.5867 10.57V8.41999ZM27.3333 13.7733H8.66667V10.5367C8.66752 10.3489 8.7427 10.1692 8.87576 10.0367C9.00883 9.90429 9.18893 9.82996 9.37667 9.82999H11.92V10.57C11.9205 10.8395 12.0278 11.0978 12.2183 11.2883C12.4089 11.4789 12.6672 11.5861 12.9367 11.5867H13.6933C13.8269 11.5867 13.9591 11.5604 14.0824 11.5093C14.2058 11.4582 14.3179 11.3834 14.4123 11.2889C14.5067 11.1945 14.5816 11.0824 14.6327 10.9591C14.6838 10.8357 14.71 10.7035 14.71 10.57V9.82999H21.2733V10.57C21.2738 10.8395 21.3811 11.0978 21.5717 11.2883C21.7622 11.4789 22.0205 11.5861 22.29 11.5867H23.0467C23.3161 11.5861 23.5744 11.4789 23.765 11.2883C23.9556 11.0978 24.0628 10.8395 24.0633 10.57V9.82999H26.6233C26.8111 9.82996 26.9912 9.90429 27.1242 10.0367C27.2573 10.1692 27.3325 10.3489 27.3333 10.5367V13.7733Z" fill="black"/>
</g>
</g>
<defs>
<filter id="filter0_d_1_12285" x="0" y="0" width="36" height="36" filterUnits="userSpaceOnUse" color-interpolation-filters="sRGB">
<feFlood flood-opacity="0" result="BackgroundImageFix"/>
<feColorMatrix in="SourceAlpha" type="matrix" values="0 0 0 0 0 0 0 0 0 0 0 0 0 0 0 0 0 0 127 0" result="hardAlpha"/>
<feOffset dy="1"/>
<feGaussianBlur stdDeviation="1"/>
<feComposite in2="hardAlpha" operator="out"/>
<feColorMatrix type="matrix" values="0 0 0 0 0.0627451 0 0 0 0 0.0941176 0 0 0 0 0.156863 0 0 0 0.05 0"/>
<feBlend mode="normal" in2="BackgroundImageFix" result="effect1_dropShadow_1_12285"/>
<feBlend mode="normal" in="SourceGraphic" in2="effect1_dropShadow_1_12285" result="shape"/>
</filter>
<clipPath id="clip0_1_12285">
<rect width="20" height="20" fill="white" transform="translate(8 7)"/>
</clipPath>
</defs>
</svg>
